<?xml version="1.0" encoding="iso-8859-1"?>
<!-- Generator: Adobe Illustrator 19.0.0, SVG Export Plug-In . SVG Version: 6.00 Build 0)  -->
<svg version="1.1" id="Capa_1" xmlns="http://www.w3.org/2000/svg" xmlns:xlink="http://www.w3.org/1999/xlink" x="0px" y="0px"
	 viewBox="0 0 511.999 511.999" style="enable-background:new 0 0 511.999 511.999;" xml:space="preserve">
<g>
	<path style="fill:#F3C849;" d="M215.762,326.156c1.051-0.746,2.157-1.372,3.301-1.879
		C217.92,324.784,216.813,325.41,215.762,326.156z"/>
	<path style="fill:#F3C849;" d="M34.124,140.415c1.255,12.967,8.943,23.759,19.598,29.526
		c15.299,79.761,48.447,156.527,96.012,222.356c-3.108,11.711-0.524,24.706,8.053,34.511l54.517,62.319
		c13.703,15.664,37.509,17.254,53.173,3.551l28.879-25.263L190.217,348.372l-0.189,0.165c-35.58-54.203-61.77-114.855-76.826-177.92
		l32.006-3.099c0.41-0.04,0.815-0.092,1.215-0.157c-0.401,0.065-0.806,0.117-1.215,0.157l-31.756,3.074L98.211,13.166l31.756-3.074
		c0.655-0.063,1.306-0.093,1.95-0.09c-0.645-0.003-1.295,0.026-1.951,0.09l-69.946,6.772C39.307,18.869,24.14,37.287,26.145,58.001
		L34.124,140.415z"/>
	<path style="fill:#F3C849;" d="M215.762,326.156c-0.525,0.373-1.037,0.776-1.533,1.21l-17.797,15.569l17.798-15.569
		C214.725,326.933,215.237,326.529,215.762,326.156z"/>
</g>
<g>
	<path style="fill:#61BBF2;" d="M98.211,13.166l15.241,157.427l31.756-3.074c0.41-0.04,0.815-0.092,1.215-0.157
		c0.401-0.065,0.797-0.141,1.188-0.23c2.346-0.532,4.513-1.49,6.424-2.781c0.753-0.508,1.45-1.084,2.119-1.691
		c0.69-0.626,1.348-1.284,1.939-2.002c0.919-1.116,1.708-2.338,2.352-3.64c0.483-0.977,0.884-1.999,1.197-3.056
		c0.104-0.352,0.199-0.709,0.283-1.068c0.18-0.765,0.33-1.54,0.414-2.334c0.133-1.26,0.142-2.553,0.015-3.863L150.789,27.238
		c-0.063-0.655-0.159-1.3-0.286-1.932c-0.506-2.528-1.504-4.857-2.882-6.896c-1.722-2.548-4.037-4.643-6.727-6.105
		c-2.152-1.169-4.544-1.933-7.065-2.199c-0.63-0.067-1.268-0.102-1.913-0.105c-0.645-0.003-1.295,0.026-1.95,0.09L98.211,13.166z"/>
	<path style="fill:#61BBF2;" d="M294.354,467.414l24.013-21.006c2.634-2.304,4.464-5.178,5.502-8.273
		c1.111-3.309,1.315-6.871,0.548-10.282c-0.405-1.8-1.075-3.557-2.014-5.21c-0.626-1.102-1.372-2.157-2.239-3.148l-79.022-90.33
		c-0.867-0.991-1.814-1.871-2.823-2.638c-1.513-1.151-3.166-2.049-4.896-2.689c-1.01-0.374-2.046-0.66-3.097-0.857
		c-1.051-0.198-2.116-0.307-3.184-0.327c-2.136-0.041-4.281,0.275-6.34,0.954c-0.588,0.194-1.169,0.418-1.741,0.671
		c-1.144,0.507-2.25,1.133-3.301,1.879c-0.525,0.373-1.037,0.776-1.532,1.21l-17.798,15.569l-6.215,5.437L294.354,467.414
		L294.354,467.414z"/>
</g>
<circle style="fill:#D23F45;" cx="354.348" cy="179.719" r="90.289"/>
<path d="M403.19,56.969c-2.429,4.96-0.376,10.95,4.585,13.378c42.104,20.612,68.261,62.519,68.261,109.366
	c0,67.101-54.59,121.69-121.689,121.69s-121.689-54.59-121.689-121.69c0-60.71,44.689-111.176,102.897-120.237l-0.89,0.897
	c-3.889,3.922-3.862,10.253,0.06,14.142c1.95,1.934,4.495,2.899,7.041,2.899c2.573,0,5.146-0.987,7.101-2.959l18.497-18.654
	c3.771-3.803,3.877-9.901,0.24-13.832l-18.787-20.308c-3.751-4.055-10.078-4.298-14.132-0.55c-4.054,3.75-4.3,10.078-0.55,14.132
	l3.49,3.773c-70.275,8.3-124.968,68.228-124.968,140.698c0,78.129,63.563,141.69,141.689,141.69s141.689-63.562,141.689-141.69
	c0-27.028-7.64-53.312-22.094-76.01c-14.063-22.084-33.902-39.83-57.374-51.32C411.607,49.955,405.618,52.01,403.19,56.969z"/>
<path d="M24.17,141.378c1.373,14.173,8.955,26.858,20.582,34.791c15.631,78.115,48.158,153.443,94.297,218.385
	c-2.198,13.903,1.836,28.121,11.211,38.837l54.517,62.319c8.386,9.586,20.003,15.333,32.711,16.182
	c1.086,0.072,2.168,0.108,3.246,0.108c11.54,0,22.559-4.127,31.326-11.797l52.892-46.269c0.374-0.327,0.738-0.662,1.091-1.004
	c0.046-0.045,0.089-0.091,0.135-0.136c0.31-0.304,0.615-0.611,0.908-0.925c0.005-0.005,0.009-0.01,0.014-0.016
	c4.553-4.877,7.269-11.117,7.719-17.864c0.447-6.686-1.382-13.174-5.175-18.583c-0.042-0.059-0.08-0.12-0.122-0.179
	c-0.196-0.275-0.404-0.545-0.61-0.815c-0.095-0.124-0.184-0.251-0.281-0.374c-0.158-0.2-0.327-0.394-0.491-0.591
	c-0.149-0.179-0.292-0.361-0.447-0.537l-79.022-90.331c-10.556-12.066-28.959-13.294-41.024-2.739l-15.469,13.532
	c-29.936-47.724-52.253-99.407-66.462-153.919l20.457-1.98c0.711-0.069,1.413-0.163,2.107-0.281c10.399-1.774,18.724-9,22.287-18.4
	c0.198-0.523,0.386-1.05,0.554-1.585c0.068-0.217,0.126-0.438,0.189-0.658c0.068-0.235,0.141-0.469,0.203-0.706
	c0.007-0.028,0.013-0.057,0.02-0.086c0.4-1.551,0.666-3.15,0.803-4.779c0.056-0.665,0.092-1.335,0.102-2.01
	c0.001-0.089,0.008-0.177,0.008-0.266c0.005-0.981-0.04-1.972-0.136-2.969l-0.938-9.689L160.745,26.274
	c-0.556-5.745-2.754-11.073-6.306-15.457c-0.032-0.039-0.061-0.08-0.093-0.12c-0.127-0.155-0.262-0.303-0.392-0.456
	c-0.487-0.571-0.992-1.13-1.526-1.665c-0.677-0.678-1.39-1.327-2.14-1.944c-4.496-3.703-9.872-5.925-15.541-6.489
	c-1.889-0.188-3.811-0.192-5.742-0.005L97.248,3.212l0,0L59.058,6.91C46.381,8.138,34.94,14.228,26.844,24.06
	S14.965,46.288,16.192,58.965L24.17,141.378z M220.814,334.892c0.275-0.24,0.563-0.455,0.856-0.656
	c2.981-2.04,6.864-2.087,9.865-0.248c0.155,0.095,0.303,0.205,0.454,0.31c0.095,0.067,0.194,0.126,0.287,0.196
	c0.48,0.364,0.93,0.782,1.342,1.253l79.021,90.332c0.146,0.166,0.277,0.341,0.409,0.516c0.05,0.066,0.107,0.129,0.155,0.196
	c0.072,0.101,0.133,0.209,0.201,0.312c0.099,0.153,0.203,0.303,0.293,0.46c0.03,0.052,0.053,0.107,0.082,0.16
	c1.69,3.111,1.412,6.964-0.726,9.795c-0.006,0.008-0.01,0.016-0.016,0.024c-0.154,0.203-0.323,0.398-0.497,0.589
	c-0.033,0.036-0.061,0.075-0.094,0.11c-0.207,0.222-0.427,0.436-0.661,0.64l-16.486,14.421l-90.969-103.988L220.814,334.892z
	 M42.283,36.773c4.7-5.708,11.342-9.244,18.702-9.957l28.238-2.734l2.402,24.814c0.532,5.497,5.418,9.517,10.917,8.99
	c5.498-0.532,9.522-5.42,8.99-10.917l-2.402-24.814l21.802-2.111c0.589-0.057,1.176-0.055,1.753,0.001
	c0.065,0.006,0.13,0.018,0.195,0.025c0.214,0.025,0.427,0.055,0.637,0.095c0.086,0.016,0.171,0.037,0.256,0.056
	c0.188,0.042,0.374,0.087,0.559,0.141c0.093,0.027,0.185,0.056,0.277,0.086c0.174,0.057,0.347,0.119,0.518,0.186
	c0.094,0.037,0.187,0.074,0.28,0.114c0.167,0.072,0.331,0.152,0.493,0.234c0.09,0.046,0.18,0.089,0.269,0.138
	c0.168,0.092,0.332,0.194,0.494,0.297c0.076,0.049,0.155,0.094,0.23,0.145c0.22,0.15,0.436,0.31,0.645,0.48
	c0.012,0.01,0.025,0.018,0.037,0.028c1.871,1.541,3.03,3.717,3.263,6.129l11.565,119.458c0.234,2.412-0.486,4.771-2.027,6.642
	c-1.541,1.871-3.717,3.03-6.129,3.263l-21.803,2.11l-3.048-31.487c-0.532-5.498-5.431-9.524-10.917-8.99
	c-5.497,0.532-9.522,5.42-8.99,10.917l3.803,39.281c-0.144,1.171-0.094,2.37,0.186,3.543
	c15.427,64.62,41.735,125.545,78.193,181.086c0.662,1.009,1.5,1.868,2.452,2.566l96.123,109.881l-21.353,18.679
	c-5.565,4.869-12.692,7.278-20.071,6.786c-7.378-0.493-14.122-3.829-18.991-9.394l-54.517-62.32
	c-6.075-6.944-8.286-16.425-5.915-25.362c0.77-2.899,0.197-5.99-1.56-8.422c-46.677-64.598-79.284-140.113-94.296-218.383
	c-0.565-2.946-2.422-5.482-5.061-6.911c-8.131-4.401-13.516-12.512-14.405-21.696l-7.979-82.414
	C35.386,49.678,37.583,42.481,42.283,36.773z"/>
<path d="M254.055,179.714c0,55.301,44.99,100.29,100.29,100.29s100.29-44.99,100.29-100.29s-44.991-100.29-100.29-100.29
	S254.055,124.413,254.055,179.714z M434.636,179.714c0,44.272-36.019,80.291-80.29,80.291s-80.291-36.019-80.291-80.291
	s36.019-80.291,80.291-80.291S434.636,135.441,434.636,179.714z"/>
<path d="M96.362,93.251c0.25,0.6,0.56,1.18,0.92,1.72c0.36,0.55,0.78,1.06,1.24,1.52s0.97,0.88,1.52,1.25
	c0.54,0.36,1.12,0.67,1.73,0.92c0.6,0.25,1.23,0.44,1.87,0.57c0.64,0.13,1.3,0.19,1.95,0.19c0.65,0,1.31-0.06,1.96-0.19
	c0.63-0.13,1.26-0.32,1.87-0.57c0.6-0.25,1.18-0.56,1.72-0.92c0.55-0.37,1.06-0.79,1.52-1.25s0.88-0.97,1.25-1.52
	c0.36-0.54,0.67-1.12,0.92-1.72c0.25-0.61,0.44-1.24,0.57-1.87c0.13-0.65,0.19-1.31,0.19-1.96c0-0.65-0.06-1.31-0.19-1.95
	c-0.13-0.64-0.32-1.27-0.57-1.87c-0.25-0.61-0.56-1.19-0.92-1.73c-0.37-0.55-0.79-1.06-1.25-1.52c-0.46-0.46-0.97-0.88-1.52-1.24
	c-0.54-0.36-1.12-0.67-1.72-0.92c-0.61-0.25-1.24-0.44-1.87-0.57c-1.29-0.26-2.62-0.26-3.91,0c-0.64,0.13-1.27,0.32-1.87,0.57
	c-0.61,0.25-1.19,0.56-1.73,0.92c-0.55,0.36-1.06,0.78-1.52,1.24c-1.86,1.86-2.93,4.44-2.93,7.07c0,0.65,0.07,1.31,0.2,1.96
	C95.922,92.011,96.112,92.641,96.362,93.251z"/>
<path d="M348.468,203.227h-28.043v-1.062c0-1.56,1.008-3.314,2.997-5.216c2.232-2.136,4.991-4.309,8.198-6.459
	c3.305-2.214,6.676-4.661,10.019-7.272c3.456-2.699,6.416-6.029,8.798-9.898c2.439-3.962,3.676-8.268,3.676-12.8
	c0-6.832-2.561-12.394-7.611-16.531c-4.961-4.063-10.907-6.123-17.673-6.123c-6.423,0-12.083,1.929-16.822,5.733
	c-4.84,3.883-7.293,9.017-7.293,15.259c0,7.757,4.794,8.915,7.652,8.915c2.501,0,4.558-0.646,6.113-1.921
	c1.644-1.349,2.477-2.968,2.477-4.812c0-2.78,0.709-4.77,2.167-6.083c1.505-1.355,3.406-2.014,5.813-2.014
	c2.836,0,4.886,0.774,6.269,2.366c1.438,1.658,2.138,3.502,2.138,5.638c0,2.4-1.063,4.876-3.162,7.362
	c-2.257,2.674-5.04,5.254-8.255,7.655l-10.233,7.42c-3.134,2.562-5.838,5.458-8.037,8.606c-2.303,3.293-3.47,6.698-3.47,10.122
	v10.327c0,1.199,0.461,2.926,2.656,4.345c1.555,1.008,3.157,1.52,4.763,1.52h36.964c1.114,0,2.745-0.433,4.188-2.494
	c1.041-1.487,1.569-3.22,1.569-5.15c0-1.95-0.55-3.663-1.635-5.092C351.219,203.633,349.583,203.227,348.468,203.227z"/>
<path d="M406.414,188.124c-1.053-1.624-2.587-2.482-4.437-2.482h-3.479v-10.156c0-2.017-0.954-3.637-2.762-4.685
	c-1.569-0.907-3.461-1.367-5.624-1.367c-2.165,0-4.058,0.46-5.625,1.368c-1.806,1.046-2.761,2.666-2.761,4.685v10.156h-8.468
	l19.255-38.508c0.463-0.925,0.688-1.734,0.688-2.472c0-1.387-0.533-3.384-3.072-5.022c-1.829-1.178-3.617-1.775-5.313-1.775
	c-3.324,0-5.808,1.532-7.161,4.388l-25.089,48.926c-0.613,1.126-0.924,2.287-0.924,3.448c0,1.823,0.604,3.316,1.794,4.435
	c1.166,1.099,2.635,1.657,4.366,1.657h23.925v11.55c0,1.35,0.486,3.246,2.804,4.611c1.605,0.945,3.483,1.424,5.582,1.424
	c2.174,0,4.074-0.482,5.649-1.433c1.79-1.083,2.736-2.674,2.736-4.602v-11.55h3.479c1.124,0,2.772-0.429,4.239-2.472
	c1.064-1.487,1.604-3.175,1.604-5.017C407.821,191.283,407.347,189.566,406.414,188.124z"/>
<g>
</g>
<g>
</g>
<g>
</g>
<g>
</g>
<g>
</g>
<g>
</g>
<g>
</g>
<g>
</g>
<g>
</g>
<g>
</g>
<g>
</g>
<g>
</g>
<g>
</g>
<g>
</g>
<g>
</g>
</svg>
