<svg viewBox="-22 0 512 512" xmlns="http://www.w3.org/2000/svg"><path d="m186.609375 7.5h-13.015625c-7.160156 0-13.015625 5.859375-13.015625 13.015625v21.441406h39.050781v-21.441406c0-7.15625-5.859375-13.015625-13.019531-13.015625zm0 0" fill="#e4eaf8"/><path d="m190.167969 8.011719c-1.132813-.328125-2.324219-.511719-3.558594-.511719h-13.015625c-7.160156 0-13.015625 5.859375-13.015625 13.015625v21.441406h20.136719v-21.441406c-.003906-5.921875 4.011718-10.945313 9.453125-12.503906zm0 0" fill="#c2c7d0"/><path d="m326 54.328125c-11.578125 0-280.179688 0-291.800781 0-14.652344 0-26.574219 11.921875-26.574219 26.574219v397.019531c0 14.65625 11.921875 26.578125 26.574219 26.578125h291.800781c14.65625 0 26.578125-11.921875 26.578125-26.578125v-397.019531c0-14.65625-11.921875-26.574219-26.578125-26.574219zm0 0" fill="#ff9052"/><path d="m325.457031 474.214844c0 1.75-1.414062 3.167968-3.164062 3.167968h-284.382813c-1.75 0-3.167968-1.417968-3.167968-3.167968v-389.605469c0-1.746094 1.417968-3.164063 3.167968-3.164063h284.382813c1.75 0 3.164062 1.417969 3.164062 3.164063zm0 0" fill="#fff"/><path d="m27.625 477.921875v-397.019531c0-14.65625 11.921875-26.578125 26.578125-26.578125-11.09375 0-18.300781 0-20 0-14.65625 0-26.578125 11.921875-26.578125 26.578125v397.019531c0 14.652344 11.921875 26.578125 26.578125 26.578125h20c-14.65625 0-26.578125-11.921875-26.578125-26.578125zm0 0" fill="#ff8031"/><path d="m54.746094 474.214844v-389.605469c0-1.746094 1.417968-3.164063 3.164062-3.164063-10.65625 0-17.800781 0-20 0-1.75 0-3.167968 1.417969-3.167968 3.164063v389.605469c0 1.75 1.417968 3.167968 3.167968 3.167968h20c-1.746094 0-3.164062-1.417968-3.164062-3.167968zm0 0" fill="#e4eaf8"/><path d="m431.222656 164.722656v-48.386718c0-7.636719-6.191406-13.828126-13.832031-13.828126h-7.050781c-7.636719 0-13.832032 6.191407-13.832032 13.828126v48.386718zm0 0" fill="#fea82f"/><path d="m423.972656 104.171875c-1.957031-1.0625-4.199218-1.664063-6.582031-1.664063h-7.050781c-7.636719 0-13.832032 6.191407-13.832032 13.832032v48.382812h20.210938v-48.382812c.003906-5.257813 2.9375-9.828125 7.253906-12.167969zm0 0" fill="#ff9052"/><path d="m396.511719 189.804688v228.976562c0 4.765625.761719 9.5 2.261719 14.023438l13.3125 40.195312c.566406 1.714844 2.996093 1.714844 3.5625 0l13.507812-40.789062c1.367188-4.132813 2.066406-8.453126 2.066406-12.800782v-229.605468zm0 0" fill="#fea82f"/><path d="m418.773438 432.804688c-1.496094-4.523438-2.261719-9.257813-2.261719-14.023438v-228.976562h-20v228.976562c0 4.765625.761719 9.5 2.261719 14.023438l13.3125 40.195312c.566406 1.714844 2.996093 1.714844 3.5625 0l8.21875-24.820312zm0 0" fill="#ff9052"/><path d="m396.511719 401.234375v17.546875c0 4.765625.761719 9.5 2.261719 14.023438l13.3125 40.191406c.566406 1.714844 2.992187 1.714844 3.5625 0l13.507812-40.789063c1.367188-4.128906 2.066406-8.449219 2.066406-12.800781v-18.171875zm0 0" fill="#ff9052"/><path d="m423.867188 448.179688-5.09375-15.375c-1.496094-4.523438-2.261719-9.257813-2.261719-14.023438v-17.546875h-20v17.546875c0 4.765625.761719 9.5 2.261719 14.023438l6.65625 20.097656 6.65625 20.09375c.070312.214844.171874.402344.292968.566406.121094.160156.265625.292969.421875.398438.632813.429687 1.5.429687 2.128907 0 .160156-.105469.304687-.238282.425781-.398438.121093-.164062.21875-.351562.292969-.566406zm0 0" fill="#ff8031"/><path d="m396.511719 164.15625h34.710937v26.214844h-34.710937zm0 0" fill="#fff"/><path d="m396.511719 164.15625h20.210937v26.214844h-20.210937zm0 0" fill="#e4eaf8"/><path d="m244.191406 38.957031h-128.179687c-2.347657 0-4.25 1.902344-4.25 4.25v41.582031c0 2.347657 1.902343 4.25 4.25 4.25h128.179687c2.347656 0 4.25-1.902343 4.25-4.25v-41.582031c0-2.347656-1.902344-4.25-4.25-4.25zm0 0" fill="#92e0c0"/><path d="m244.191406 69.039062h-128.179687c-2.347657 0-4.25-1.902343-4.25-4.25v20c0 2.347657 1.902343 4.25 4.25 4.25h128.179687c2.347656 0 4.25-1.902343 4.25-4.25v-20c0 2.347657-1.902344 4.25-4.25 4.25zm0 0" fill="#6dc296"/><path d="m217.402344 221.183594-32.328125-67.566406c-1.753907-3.664063-6.972657-3.664063-8.726563 0l-32.328125 67.566406c-12.914062 27 6.761719 58.230468 36.691407 58.230468 29.929687 0 49.605468-31.230468 36.691406-58.230468zm0 0" fill="#fea82f"/><path d="m164.023438 221.183594 26.6875-55.78125-5.636719-11.785156c-1.753907-3.664063-6.96875-3.664063-8.722657 0l-32.328124 67.570312c-12.917969 26.996094 6.761718 58.226562 36.6875 58.226562 3.488281 0 6.828124-.441406 10-1.230468-24.0625-6.007813-38.097657-33.148438-26.6875-57zm0 0" fill="#ff9052"/><g fill="#c2c7d0"><path d="m459.84375 303.835938c-4.140625 0-7.5-3.355469-7.5-7.5v-123.136719c0-.851563-.691406-1.542969-1.539062-1.542969h-19.707032c-4.140625 0-7.5-3.355469-7.5-7.5 0-4.140625 3.359375-7.5 7.5-7.5h19.707032c9.121093 0 16.539062 7.417969 16.539062 16.542969v123.136719c0 4.144531-3.359375 7.5-7.5 7.5zm0 0"/><path d="m207.496094 123.476562h-52.988282c-6.238281 0-11.945312-3.667968-14.53125-9.351562l-10.011718-21.976562c-1.058594-2.324219-.863282-5.023438.519531-7.167969 1.378906-2.144531 3.753906-3.441407 6.308594-3.441407h87.59375c2.523437 0 4.875 1.269532 6.265625 3.375 1.386718 2.105469 1.621094 4.769532.625 7.089844l-9.5 22.074219c-2.460938 5.710937-8.066406 9.398437-14.28125 9.398437zm-59.046875-26.9375 5.179687 11.371094c.15625.34375.5.566406.878906.566406h52.988282c.21875 0 .414062-.128906.5-.328124l4.996094-11.609376zm0 0"/><path d="m276.882812 321.988281h-193.8125c-4.140624 0-7.5-3.359375-7.5-7.503906 0-4.140625 3.359376-7.5 7.5-7.5h193.8125c4.140626 0 7.5 3.359375 7.5 7.5 0 4.144531-3.359374 7.503906-7.5 7.503906zm0 0"/><path d="m276.882812 360.554688h-193.8125c-4.140624 0-7.5-3.355469-7.5-7.5 0-4.140626 3.359376-7.5 7.5-7.5h193.8125c4.140626 0 7.5 3.359374 7.5 7.5 0 4.144531-3.359374 7.5-7.5 7.5zm0 0"/><path d="m276.882812 399.125h-193.8125c-4.140624 0-7.5-3.359375-7.5-7.5s3.359376-7.5 7.5-7.5h193.8125c4.140626 0 7.5 3.359375 7.5 7.5s-3.359374 7.5-7.5 7.5zm0 0"/><path d="m276.882812 437.695312h-193.8125c-4.140624 0-7.5-3.359374-7.5-7.503906 0-4.140625 3.359376-7.5 7.5-7.5h193.8125c4.140626 0 7.5 3.359375 7.5 7.5 0 4.144532-3.359374 7.503906-7.5 7.503906zm0 0"/></g><path d="m180.585938 259.367188c-4.140626 0-7.5-3.359376-7.5-7.5v-28.972657c0-4.140625 3.359374-7.5 7.5-7.5 4.144531 0 7.5 3.359375 7.5 7.5v28.972657c0 4.140624-3.355469 7.5-7.5 7.5zm0 0" fill="#ff8031"/><path d="m195.074219 244.882812h-28.972657c-4.144531 0-7.503906-3.359374-7.503906-7.5 0-4.144531 3.359375-7.5 7.503906-7.5h28.972657c4.140625 0 7.5 3.355469 7.5 7.5 0 4.140626-3.359375 7.5-7.5 7.5zm0 0" fill="#ff8031"/><path d="m417.265625 95.007812h-7.050781c-11.761719 0-21.332032 9.566407-21.332032 21.332032v302.441406c0 5.578125.890626 11.085938 2.644532 16.382812l13.3125 40.191407c1.273437 3.847656 4.851562 6.429687 8.902344 6.429687 4.050781 0 7.625-2.582031 8.898437-6.429687l13.511719-40.789063c1.621094-4.898437 2.445312-10 2.445312-15.15625v-303.070312c0-11.765625-9.566406-21.332032-21.332031-21.332032zm6.332031 324.402344c0 3.550782-.566406 7.066406-1.683594 10.441406l-8.171874 24.667969-7.976563-24.074219c-1.246094-3.769531-1.878906-7.695312-1.878906-11.664062v-302.441406c0-3.492188 2.839843-6.332032 6.332031-6.332032h7.050781c3.488281 0 6.328125 2.839844 6.328125 6.332032zm0 0" fill="#474d54"/><path d="m325.875 46.824219h-70.058594v-3.617188c0-6.480469-5.269531-11.75-11.75-11.75h-37.0625v-10.941406c0-11.3125-9.203125-20.515625-20.519531-20.515625h-13.015625c-11.3125 0-20.515625 9.203125-20.515625 20.515625v10.941406h-37.066406c-6.480469 0-11.75 5.273438-11.75 11.75v3.617188h-70.058594c-18.792969 0-34.078125 15.289062-34.078125 34.078125v397.019531c0 18.792969 15.285156 34.078125 34.078125 34.078125h129.007813c4.140624 0 7.5-3.359375 7.5-7.5 0-4.144531-3.359376-7.5-7.5-7.5h-129.007813c-10.519531 0-19.078125-8.558594-19.078125-19.078125v-397.019531c0-10.519532 8.558594-19.078125 19.078125-19.078125h70.058594v22.964843c0 6.476563 5.269531 11.75 11.75 11.75h128.179687c6.480469 0 11.75-5.273437 11.75-11.75v-22.964843h70.058594c10.519531 0 19.078125 8.558593 19.078125 19.078125v175.785156c0 4.140625 3.359375 7.5 7.5 7.5s7.5-3.359375 7.5-7.5v-175.785156c0-18.789063-15.285156-34.078125-34.078125-34.078125zm-157.921875-26.308594c0-3.039063 2.472656-5.515625 5.515625-5.515625h13.015625c3.042969 0 5.519531 2.476562 5.519531 5.515625v10.941406h-24.050781zm72.863281 61.023437h-121.679687v-35.082031h121.679687zm0 0" fill="#474d54"/><path d="m352.453125 284.191406c-4.140625 0-7.5 3.355469-7.5 7.5v186.230469c0 10.519531-8.558594 19.078125-19.078125 19.078125h-127.785156c-4.144532 0-7.503906 3.355469-7.503906 7.5 0 4.140625 3.359374 7.5 7.503906 7.5h127.785156c18.792969 0 34.078125-15.285156 34.078125-34.078125v-186.230469c0-4.144531-3.359375-7.5-7.5-7.5zm0 0" fill="#474d54"/></svg>