<?xml version="1.0" encoding="iso-8859-1"?>
<!-- Generator: Adobe Illustrator 19.0.0, SVG Export Plug-In . SVG Version: 6.00 Build 0)  -->
<svg version="1.1" id="Capa_1" xmlns="http://www.w3.org/2000/svg" xmlns:xlink="http://www.w3.org/1999/xlink" x="0px" y="0px"
	 viewBox="0 0 512.001 512.001" style="enable-background:new 0 0 512.001 512.001;" xml:space="preserve">
<path style="fill:#DBD9DC;" d="M49.549,148.645h49.548v330.323c0,18.243-14.789,33.032-33.032,33.032l0,0
	c-18.243,0-33.032-14.789-33.032-33.032V165.161C33.033,156.04,40.428,148.645,49.549,148.645z"/>
<path style="fill:#EDEBED;" d="M470.711,0H107.356c-4.561,0-8.258,3.697-8.258,8.258v470.71c0,18.243-14.789,33.032-33.032,33.032
	h379.871c18.243,0,33.032-14.789,33.032-33.032V8.258C478.969,3.697,475.272,0,470.711,0z"/>
<path style="fill:#FFD164;" d="M239.485,280.774h-74.323c-4.561,0-8.258-3.697-8.258-8.258V256c0-4.561,3.697-8.258,8.258-8.258
	h74.323c4.561,0,8.258,3.697,8.258,8.258v16.516C247.743,277.077,244.046,280.774,239.485,280.774z"/>
<path style="fill:#867E88;" d="M239.485,322.065h-74.323c-4.565,0-8.258-3.698-8.258-8.258s3.694-8.258,8.258-8.258h74.323
	c4.565,0,8.258,3.698,8.258,8.258S244.049,322.065,239.485,322.065z"/>
<path style="fill:#6F6571;" d="M239.485,355.097h-74.323c-4.565,0-8.258-3.698-8.258-8.258s3.694-8.258,8.258-8.258h74.323
	c4.565,0,8.258,3.698,8.258,8.258S244.049,355.097,239.485,355.097z"/>
<path style="fill:#867E88;" d="M239.485,388.129h-74.323c-4.565,0-8.258-3.698-8.258-8.258s3.694-8.258,8.258-8.258h74.323
	c4.565,0,8.258,3.698,8.258,8.258S244.049,388.129,239.485,388.129z"/>
<path style="fill:#6F6571;" d="M239.485,421.161h-74.323c-4.565,0-8.258-3.698-8.258-8.258s3.694-8.258,8.258-8.258h74.323
	c4.565,0,8.258,3.698,8.258,8.258S244.049,421.161,239.485,421.161z"/>
<path style="fill:#867E88;" d="M412.904,322.065H297.291c-4.565,0-8.258-3.698-8.258-8.258s3.694-8.258,8.258-8.258h115.613
	c4.565,0,8.258,3.698,8.258,8.258S417.469,322.065,412.904,322.065z"/>
<path style="fill:#6F6571;" d="M412.904,355.097H297.291c-4.565,0-8.258-3.698-8.258-8.258s3.694-8.258,8.258-8.258h115.613
	c4.565,0,8.258,3.698,8.258,8.258S417.469,355.097,412.904,355.097z"/>
<path style="fill:#867E88;" d="M412.904,256H297.291c-4.565,0-8.258-3.698-8.258-8.258s3.694-8.258,8.258-8.258h115.613
	c4.565,0,8.258,3.698,8.258,8.258S417.469,256,412.904,256z"/>
<path style="fill:#6F6571;" d="M412.904,289.032H297.291c-4.565,0-8.258-3.698-8.258-8.258s3.694-8.258,8.258-8.258h115.613
	c4.565,0,8.258,3.698,8.258,8.258S417.469,289.032,412.904,289.032z"/>
<path style="fill:#A5CDFF;" d="M412.904,454.194H297.291c-4.561,0-8.258-3.697-8.258-8.258V388.13c0-4.561,3.697-8.258,8.258-8.258
	h115.613c4.561,0,8.258,3.697,8.258,8.258v57.806C421.162,450.496,417.465,454.194,412.904,454.194z"/>
<path style="fill:#C9C6CA;" d="M66.066,462.452V166.045c0-8.227-5.622-15.852-13.742-17.173c-10.348-1.683-19.29,6.259-19.29,16.29
	v312.387c0,17.253,12.613,32.659,29.788,34.297c19.702,1.879,36.276-13.564,36.276-32.877v-8.258H74.324
	C69.763,470.71,66.066,467.012,66.066,462.452z"/>
<path style="fill:#FF8087;" d="M412.904,198.194H165.162c-4.561,0-8.258-3.697-8.258-8.258V66.065c0-4.561,3.697-8.258,8.258-8.258
	h247.742c4.561,0,8.258,3.697,8.258,8.258v123.871C421.162,194.496,417.465,198.194,412.904,198.194z"/>
<path style="fill:#DBD9DC;" d="M474.387,495.484H94.516C88.794,505.316,78.261,512,66.066,512h379.871
	C458.132,512,468.665,505.316,474.387,495.484z"/>
<path style="fill:#E6646E;" d="M189.937,99.097v-41.29h-24.774c-4.561,0-8.258,3.697-8.258,8.258v123.871
	c0,4.561,3.697,8.258,8.258,8.258h247.742c4.561,0,8.258-3.697,8.258-8.258v-24.774H256.001
	C219.515,165.161,189.937,135.583,189.937,99.097z"/>
<path style="fill:#8CB4EB;" d="M346.84,429.419c-18.243,0-33.032-14.789-33.032-33.032v-16.516h-16.517
	c-4.561,0-8.258,3.697-8.258,8.258v57.806c0,4.561,3.697,8.258,8.258,8.258h115.613c4.561,0,8.258-3.697,8.258-8.258v-16.516H346.84
	z"/>
<g>
</g>
<g>
</g>
<g>
</g>
<g>
</g>
<g>
</g>
<g>
</g>
<g>
</g>
<g>
</g>
<g>
</g>
<g>
</g>
<g>
</g>
<g>
</g>
<g>
</g>
<g>
</g>
<g>
</g>
</svg>
